<svg xmlns="http://www.w3.org/2000/svg" x="0px" y="0px"
     width="96" height="96"
     viewBox="0 0 226 226"
     style=" fill:#000000;">
    <g fill="none" stroke="none" stroke-width="none"
       stroke-miterlimit="10" stroke-dasharray="" stroke-dashoffset="0" font-family="none"
       font-size="none" style="mix-blend-mode: normal">
        <path d="M0,226v-226h226v226z" fill="none" stroke="none" stroke-width="1"></path>
        <g stroke="none" stroke-width="1">
            <path d="M189.47275,218.9375h-1.4125l-96.41725,-9.68975c-3.69028,-0.34992 -7.08881,-2.15653 -9.44304,-5.01979c-2.35423,-2.86325 -3.4699,-6.54689 -3.09996,-10.23521l15.5375,-155.68575c0.68534,-7.12702 6.68263,-12.56129 13.8425,-12.543h1.4125l96.4455,9.63325c3.72844,0.34783 7.15974,2.18242 9.51968,5.08983c2.35994,2.9074 3.44967,6.64264 3.02332,10.36292l-15.481,155.5445c-0.68822,7.15956 -6.73496,12.6053 -13.92725,12.543z"
                  fill="#ffff00"></path>
            <path d="M108.56475,24.37975v2.825h1.27125l96.389,9.68975c3.32,0.30723 6.38015,1.92659 8.50157,4.49881c2.12142,2.57223 3.12872,5.88465 2.79843,9.20244l-15.62225,155.62925c-0.59887,6.41374 -5.98838,11.31329 -12.43,11.3h-1.27125l-96.41725,-9.68975c-3.32,-0.30723 -6.38015,-1.92659 -8.50157,-4.49881c-2.12142,-2.57223 -3.12872,-5.88465 -2.79843,-9.20244l15.56575,-155.6575c0.59887,-6.41374 5.98838,-11.31329 12.43,-11.3v-2.825M108.48,24.3515c-7.88761,0.00592 -14.48512,5.99255 -15.255,13.8425l-15.5375,155.68575c-0.83756,8.42361 5.30684,15.93343 13.7295,16.7805l96.53025,9.68975h1.55375c7.87782,-0.00447 14.47157,-5.97548 15.255,-13.81425l15.594,-155.68575c0.83756,-8.42361 -5.30684,-15.93343 -13.7295,-16.7805l-96.4455,-9.63325h-1.55375z"
                  fill="#000000"></path>
            <path d="M58.39275,210.0105c-6.40427,0.00148 -11.98053,-4.3732 -13.5035,-10.59375l-37.43125,-151.9285c-0.90427,-3.60056 -0.33667,-7.41302 1.57722,-10.59401c1.9139,-3.18099 5.01634,-5.46832 8.62103,-6.35599l94.10075,-23.165c3.60137,-0.92016 7.42125,-0.35944 10.60626,1.55687c3.18501,1.91631 5.46973,5.02854 6.34374,8.64138l37.31825,151.9285c0.90427,3.60056 0.33667,7.41302 -1.57722,10.59401c-1.9139,3.18099 -5.01634,5.46832 -8.62103,6.35599l-94.10075,23.165c-1.0915,0.26387 -2.21056,0.39664 -3.3335,0.3955z"
                  fill="#ffff00"></path>
            <path d="M115.0905,8.475c5.71822,0.04334 10.67623,3.96552 12.0345,9.52025l37.516,151.90025c0.78976,3.23734 0.25581,6.65597 -1.48352,9.49829c-1.73933,2.84232 -4.5404,4.87361 -7.78248,5.64371l-94.10075,23.165c-3.2221,0.80104 -6.63055,0.28584 -9.47195,-1.43172c-2.8414,-1.71756 -4.88175,-4.49604 -5.67005,-7.72128l-37.29,-151.90025c-1.65169,-6.70855 2.4454,-13.48645 9.153,-15.142l94.10075,-23.165c0.97981,-0.24218 1.98521,-0.36548 2.9945,-0.36725M115.0905,5.65c-1.2379,0.00221 -2.47101,0.15397 -3.6725,0.452l-94.10075,23.165c-3.96331,0.9567 -7.38271,3.45185 -9.50295,6.93434c-2.12024,3.48249 -2.76686,7.66578 -1.79705,11.62591l37.48775,151.9285c0.9499,3.96734 3.44373,7.39159 6.9282,9.51303c3.48448,2.12145 7.67147,2.76467 11.63205,1.78697l94.10075,-23.165c3.96331,-0.9567 7.38271,-3.45185 9.50295,-6.93434c2.12024,-3.48249 2.76686,-7.66578 1.79705,-11.62591l-37.516,-152.01325c-1.68654,-6.83975 -7.81491,-11.65156 -14.8595,-11.66725z"
                  fill="#000000"></path>
        </g>
        <g fill="#000000" stroke="none" stroke-width="1">
            <path d="M75.24,101.79v9.97h9.52v4.1h-9.52v10.78h-4.36v-10.78h-9.51v-4.1h9.51v-9.97zM107.89,95.94v22.66h4.74v3.54h-4.74v7.92h-4.36v-7.92h-15.54v-2.56l15.28,-23.64zM103.02,102.8l-10.1,15.8h10.61v-16.74z"></path>
        </g>
        <path d="M51.37,140.06v-54.12h71.26v54.12z" fill="#ff0000" stroke="#50e3c2" stroke-width="3" opacity="0"></path>
    </g>
</svg>