<svg xmlns="http://www.w3.org/2000/svg" x="0px" y="0px"
     width="96" height="96"
     viewBox="0 0 172 172"
     style=" fill:#000000;">
    <g fill="none" fill-rule="nonzero" stroke="none" stroke-width="1" stroke-linecap="butt" stroke-linejoin="miter"
       stroke-miterlimit="10" stroke-dasharray="" stroke-dashoffset="0" font-family="none"
       font-size="none" style="mix-blend-mode: normal">
        <path d="M0,172v-172h172v172z" fill="none"></path>
        <g fill="#ffffff">
            <path d="M28.66667,17.2c-6.26689,0 -11.46667,5.19977 -11.46667,11.46667v103.2c0,6.26689 5.19977,11.46667 11.46667,11.46667h22.30625c0.15521,0.02997 0.29007,0.0994 0.44792,0.12317l74.53333,11.22032c6.31813,0.95173 12.23941,-3.41832 13.19114,-9.74219l15.52031,-103.2c0.95174,-6.3296 -3.41832,-12.23941 -9.74218,-13.19115l-31.38776,-4.72552c-1.85188,-3.87839 -5.8017,-6.61797 -10.33567,-6.61797zM28.66667,28.66667h74.53333v103.2h-74.53333z"></path>
        </g>
    </g>
</svg>