<svg xmlns="http://www.w3.org/2000/svg" x="0px" y="0px"
     width="96" height="96"
     viewBox="0 0 172 172"
     style=" fill:#000000;">
    <g fill="none" fill-rule="nonzero" stroke="none" stroke-width="1" stroke-linecap="butt" stroke-linejoin="miter"
       stroke-miterlimit="10" stroke-dasharray="" stroke-dashoffset="0" font-family="none"
       font-size="none" style="mix-blend-mode: normal">
        <path d="M0,172v-172h172v172z" fill="none"></path>
        <g>
            <path d="M143.7705,28.2295c-14.78555,-14.78555 -35.2084,-23.9295 -57.7705,-23.9295v81.7z"
                  fill="#ff0000"></path>
            <path d="M167.7,86c0,-20.90875 -7.9765,-41.8175 -23.9295,-57.7705l-57.7705,57.7705z" fill="#ff0000"></path>
            <path d="M143.7705,143.7705c14.78555,-14.78555 23.9295,-35.2084 23.9295,-57.7705h-81.7z"
                  fill="#008000"></path>
            <path d="M86,167.7c20.90875,0 41.8175,-7.9765 57.7705,-23.9295l-57.7705,-57.7705z" fill="#008000"></path>
            <path d="M28.2295,143.7705c14.78555,14.78555 35.2084,23.9295 57.7705,23.9295v-81.7z" fill="#0000ff"></path>
            <path d="M4.3,86c0,20.90875 7.9765,41.8175 23.9295,57.7705l57.7705,-57.7705z" fill="#0000ff"></path>
            <path d="M28.2295,28.2295c-14.78555,14.78555 -23.9295,35.2084 -23.9295,57.7705h81.7z" fill="#ffff00"></path>
            <path d="M86,4.3c-20.90875,0 -41.8175,7.9765 -57.7705,23.9295l57.7705,57.7705z" fill="#ffff00"></path>
            <path d="M142.25045,29.74955c-14.3964,-14.3964 -34.2839,-23.29955 -56.25045,-23.29955v79.55z"
                  fill="#ff0000"></path>
            <path d="M165.55,86c0,-20.35835 -7.7658,-40.7167 -23.29955,-56.25045l-56.25045,56.25045z"
                  fill="#ff0000"></path>
            <path d="M142.25045,142.25045c14.3964,-14.3964 23.29955,-34.2839 23.29955,-56.25045h-79.55z"
                  fill="#008000"></path>
            <path d="M86,165.55c20.35835,0 40.7167,-7.7658 56.25045,-23.29955l-56.25045,-56.25045z"
                  fill="#008000"></path>
            <path d="M29.74955,142.25045c14.3964,14.3964 34.2839,23.29955 56.25045,23.29955v-79.55z"
                  fill="#0000ff"></path>
            <path d="M6.45,86c0,20.35835 7.7658,40.7167 23.29955,56.25045l56.25045,-56.25045z" fill="#0000ff"></path>
            <path d="M29.74955,29.74955c-14.3964,14.3964 -23.29955,34.2839 -23.29955,56.25045h79.55z"
                  fill="#ffff00"></path>
            <path d="M86,6.45c-20.35835,0 -40.7167,7.7658 -56.25045,23.29955l56.25045,56.25045z" fill="#ffff00"></path>
        </g>
    </g>
</svg>