<svg xmlns="http://www.w3.org/2000/svg" x="0px" y="0px"
     width="96" height="96"
     viewBox="0 0 172 172"
     style=" fill:#000000;">
    <g fill="none" fill-rule="nonzero" stroke="none" stroke-width="1" stroke-linecap="butt" stroke-linejoin="miter"
       stroke-miterlimit="10" stroke-dasharray="" stroke-dashoffset="0" font-family="none"
       font-size="none" style="mix-blend-mode: normal">
        <path d="M0,172v-172h172v172z" fill="none"></path>
        <g>
            <path d="M86,4.3c-45.15,0 -81.7,36.55 -81.7,81.7c0,45.15 36.55,81.7 81.7,81.7c45.15,0 81.7,-36.55 81.7,-81.7c0,-45.15 -36.55,-81.7 -81.7,-81.7zM25.8,86c0,-33.325 26.875,-60.2 60.2,-60.2c12.685,0 24.51,4.085 34.185,10.75l-83.635,83.635c-6.665,-9.675 -10.75,-21.5 -10.75,-34.185zM86,146.2c-12.685,0 -24.51,-4.085 -34.185,-10.75l83.635,-83.635c6.665,9.675 10.75,21.5 10.75,34.185c0,33.325 -26.875,60.2 -60.2,60.2z"
                  fill="#ffffff"></path>
            <path d="M86,168.775c-45.58,0 -82.775,-37.195 -82.775,-82.775c0,-45.58 37.195,-82.775 82.775,-82.775c45.58,0 82.775,37.195 82.775,82.775c0,45.58 -37.195,82.775 -82.775,82.775zM86,5.375c-44.505,0 -80.625,36.12 -80.625,80.625c0,44.505 36.12,80.625 80.625,80.625c44.505,0 80.625,-36.12 80.625,-80.625c0,-44.505 -36.12,-80.625 -80.625,-80.625zM86,147.275c-12.47,0 -24.51,-3.87 -34.83,-10.965l-1.075,-0.645l85.57,-85.57l0.645,1.075c7.095,10.32 10.965,22.36 10.965,34.83c0,33.755 -27.52,61.275 -61.275,61.275zM53.32,135.235c9.675,6.45 20.855,9.89 32.68,9.89c32.68,0 59.125,-26.445 59.125,-59.125c0,-11.61 -3.44,-22.79 -9.89,-32.68zM36.335,121.905l-0.645,-1.075c-7.095,-10.32 -10.965,-22.36 -10.965,-34.83c0,-33.755 27.52,-61.275 61.275,-61.275c12.47,0 24.51,3.87 34.83,10.965l1.075,0.645zM86,26.875c-32.68,0 -59.125,26.445 -59.125,59.125c0,11.61 3.44,22.79 9.89,32.68l81.915,-81.915c-9.89,-6.45 -21.07,-9.89 -32.68,-9.89z"
                  fill="#000000"></path>
        </g>
    </g>
</svg>